<?xml version="1.0" standalone="no"?>
<!DOCTYPE svg PUBLIC "-//W3C//DTD SVG 20010904//EN"
 "http://www.w3.org/TR/2001/REC-SVG-20010904/DTD/svg10.dtd">
<svg version="1.0" xmlns="http://www.w3.org/2000/svg"
 width="116.000000pt" height="116.000000pt" viewBox="0 0 116.000000 116.000000"
 preserveAspectRatio="xMidYMid meet">
<metadata>
Created by potrace 1.11, written by Peter Selinger 2001-2013
</metadata>
<g transform="translate(0.000000,116.000000) scale(0.100000,-0.100000)"
fill="#000000" stroke="none">
<path d="M0 901 l0 -259 85 2 c47 2 87 5 90 8 2 2 6 13 8 24 1 10 6 25 10 32
5 6 6 12 2 12 -3 0 2 15 12 33 9 17 16 35 15 40 -1 4 3 7 9 7 5 0 8 4 5 8 -7
12 93 105 147 136 26 15 47 25 47 21 0 -4 6 -3 13 3 33 28 219 31 261 5 6 -4
17 -8 24 -9 52 -8 213 -159 197 -184 -3 -6 -2 -10 4 -10 8 0 24 -32 26 -52 0
-3 3 -10 8 -14 4 -4 7 -16 7 -26 0 -11 5 -16 10 -13 6 3 10 1 10 -5 0 -8 7 -9
18 -5 27 11 62 13 62 4 0 -5 7 -6 16 -2 9 3 28 6 43 7 l26 1 3 248 2 247 -580
0 -580 0 0 -259z"/>
<path d="M555 891 c6 -11 2 -13 -19 -9 -14 3 -26 1 -26 -3 0 -5 -3 -8 -7 -7
-10 3 -62 -18 -88 -34 -32 -21 -83 -76 -99 -107 -25 -47 -44 -111 -34 -111 5
0 4 -9 -2 -20 -6 -11 -7 -20 -3 -20 4 0 9 -19 10 -42 1 -23 6 -44 12 -46 6 -2
9 -8 5 -13 -3 -5 0 -9 6 -9 6 0 9 -4 5 -9 -9 -15 85 -106 135 -132 36 -18 63
-23 133 -24 48 -1 87 2 87 6 0 4 13 12 29 17 16 6 39 20 50 31 12 12 21 18 21
14 0 -13 49 52 70 92 25 48 43 155 26 155 -6 0 -5 4 3 9 10 6 10 10 1 16 -6 4
-9 13 -6 21 3 8 0 14 -6 14 -6 0 -8 3 -5 6 3 4 1 16 -5 28 -7 11 -11 24 -10
29 1 4 -5 7 -14 7 -8 0 -13 4 -9 9 3 5 -4 16 -15 24 -11 7 -17 17 -13 20 3 4
-1 7 -10 7 -9 0 -17 4 -17 8 0 12 -82 57 -105 58 -11 0 -28 4 -37 8 -10 5 -24
6 -32 3 -7 -3 -19 0 -26 6 -10 9 -11 9 -5 -2z m-7 -101 c-2 -37 -4 -40 -30
-40 -15 0 -28 4 -28 9 0 10 49 71 56 71 3 0 4 -18 2 -40z m112 -37 c0 -3 -6
-3 -14 0 -7 3 -19 0 -25 -6 -8 -8 -11 -7 -11 6 0 9 -4 17 -8 17 -11 0 -9 43 2
52 8 5 56 -53 56 -69z m-213 24 c-12 -26 -43 -42 -52 -27 -5 8 56 62 62 56 2
-1 -3 -14 -10 -29z m295 -2 c12 -16 9 -25 -6 -25 -14 0 -46 36 -46 52 0 9 41
-12 52 -27z m-67 -82 c5 1 11 -14 12 -34 3 -28 -1 -38 -14 -41 -21 -5 -93 13
-77 19 7 2 9 13 6 25 -7 26 23 51 47 39 9 -5 20 -8 26 -8z m94 7 c19 11 41
-12 44 -47 2 -26 -1 -28 -33 -28 -23 0 -34 5 -32 13 1 6 -2 12 -7 12 -7 0 -8
15 -2 55 1 6 5 5 9 -2 5 -7 13 -9 21 -3z m-355 -22 c-3 -64 -2 -63 -45 -64
-36 -1 -40 1 -36 20 13 60 16 63 55 62 19 -1 27 -6 26 -18z m134 -22 c-3 -38
-5 -40 -33 -39 -56 1 -56 1 -50 35 7 38 20 48 58 46 26 -2 28 -5 25 -42z
m-140 -101 c4 -3 7 -21 7 -39 1 -32 0 -33 -27 -25 -15 4 -28 5 -28 1 -1 -4 -8
6 -16 21 -12 22 -13 31 -3 43 11 13 54 13 67 -1z m145 -12 c2 -13 0 -26 -5
-29 -4 -3 -6 -9 -3 -13 3 -7 -35 -8 -66 -2 -9 1 -18 41 -13 55 3 7 22 12 43
12 33 0 40 -3 44 -23z m141 18 c5 0 3 -8 -4 -16 -7 -8 -9 -15 -6 -15 4 0 3 -8
-2 -17 -10 -17 -52 -26 -52 -11 0 4 -6 8 -13 8 -9 0 -13 10 -11 28 1 15 2 27
3 28 1 1 74 -3 85 -5z m123 -24 c1 -15 -2 -25 -8 -22 -5 4 -9 1 -9 -6 0 -7
-10 -9 -25 -7 -13 3 -27 0 -30 -6 -3 -6 -4 4 -2 22 2 18 -1 32 -7 33 -6 0 -2
4 9 9 11 5 31 8 45 7 19 -2 25 -8 27 -30z m-365 -122 c4 -5 8 -18 8 -28 0 -17
-2 -17 -15 -3 -9 9 -26 23 -38 31 -18 13 -20 17 -7 25 14 9 35 -1 52 -25z m99
7 c5 -12 5 -22 1 -22 -4 0 0 -5 8 -10 11 -7 11 -10 2 -10 -7 0 -10 -4 -7 -10
13 -21 -8 -8 -35 22 -21 23 -26 35 -19 44 15 18 41 10 50 -14z m109 6 c0 -16
-41 -68 -53 -68 -1 0 -2 19 -1 43 1 23 2 42 3 42 0 0 12 1 26 1 19 2 25 -3 25
-18z m104 14 c5 -9 -50 -63 -58 -55 -6 6 3 33 17 51 11 13 33 16 41 4z"/>
<path d="M1015 540 c2 -4 -5 -6 -17 -6 -17 1 -24 -11 -42 -67 -13 -37 -26 -64
-31 -60 -4 5 -6 1 -3 -7 9 -28 -83 -118 -162 -157 -30 -16 -57 -30 -60 -33 -3
-3 -17 -5 -32 -5 -16 1 -28 -2 -28 -5 0 -9 -103 -6 -119 4 -10 7 -12 6 -6 -4
5 -9 4 -11 -4 -6 -6 4 -23 10 -38 12 -15 3 -31 8 -37 12 -6 3 -16 7 -22 8 -19
3 -87 50 -119 81 -51 51 -70 80 -95 148 -28 76 -19 70 -114 70 l-86 0 0 -262
0 -263 580 0 580 0 -2 272 -3 273 -72 0 c-39 1 -70 -2 -68 -5z"/>
</g>
</svg>
