<?xml version="1.0" encoding="utf-8"?>
<!-- Generator: Adobe Illustrator 22.1.0, SVG Export Plug-In . SVG Version: 6.00 Build 0)  -->
<svg version="1.1" id="Layer_1" xmlns="http://www.w3.org/2000/svg" xmlns:xlink="http://www.w3.org/1999/xlink" x="0px" y="0px"
	 viewBox="0 0 423.4 126.7" style="enable-background:new 0 0 423.4 126.7;" xml:space="preserve">
<style type="text/css">
	.st0{display:none;}
	.st1{display:inline;fill:#831425;}
	.st2{fill-rule:evenodd;clip-rule:evenodd;fill:#FFFFFF;}
	.st3{fill-rule:evenodd;clip-rule:evenodd;fill:#1B3476;}
	.st4{fill-rule:evenodd;clip-rule:evenodd;fill:#831425;}
	.st5{fill-rule:evenodd;clip-rule:evenodd;fill:#CBB16D;}
</style>
<g>
	<g class="st0">
		<path class="st1" d="M-3.2,172.6c0,0.1,0,0.1,0,0.2c0,0.1-0.1,0.1-0.2,0.1c-0.1,0-0.2,0.1-0.3,0.1c-0.1,0-0.3,0-0.5,0
			c-0.2,0-0.3,0-0.5,0c-0.1,0-0.2-0.1-0.3-0.1c-0.1,0-0.1-0.1-0.2-0.1c0-0.1-0.1-0.1-0.1-0.2v-19.3h-6.8c-0.3,2.6-0.6,4.8-0.9,6.8
			c-0.3,2-0.6,3.7-0.9,5.2c-0.3,1.5-0.7,2.7-1,3.7c-0.4,1-0.8,1.8-1.3,2.4c-0.5,0.6-1,1.1-1.6,1.3c-0.6,0.3-1.3,0.4-2.1,0.4
			c-0.1,0-0.2,0-0.2-0.1c-0.1,0-0.1-0.1-0.2-0.2c0-0.1-0.1-0.2-0.1-0.3c0-0.1,0-0.3,0-0.4c0-0.2,0-0.3,0-0.4c0-0.1,0.1-0.2,0.1-0.3
			c0-0.1,0.1-0.1,0.2-0.2c0.1,0,0.1-0.1,0.2-0.1c0.4,0,0.8-0.1,1.2-0.3c0.4-0.2,0.8-0.5,1.1-1c0.4-0.5,0.7-1.2,1-2
			c0.3-0.9,0.6-2,0.9-3.4c0.3-1.4,0.6-3.1,0.9-5c0.3-2,0.6-4.3,0.8-7c0-0.4,0.1-0.7,0.3-0.9c0.1-0.2,0.4-0.3,0.7-0.3h9
			c0.3,0,0.5,0.1,0.6,0.3c0.2,0.2,0.2,0.4,0.2,0.8V172.6z"/>
		<path class="st1" d="M18.4,172.6c0,0.1,0,0.1,0,0.2c0,0.1-0.1,0.1-0.2,0.1c-0.1,0-0.2,0.1-0.3,0.1c-0.1,0-0.3,0-0.5,0
			c-0.2,0-0.3,0-0.5,0c-0.1,0-0.2-0.1-0.3-0.1c-0.1,0-0.1-0.1-0.2-0.1c0-0.1-0.1-0.1-0.1-0.2V157c0-0.3,0-0.6,0-1
			c0-0.3,0-0.7,0.1-0.9h0c-0.1,0.1-0.2,0.3-0.3,0.5c-0.1,0.2-0.2,0.3-0.3,0.5c-0.1,0.2-0.2,0.3-0.3,0.5c-0.1,0.2-0.2,0.3-0.3,0.5
			L4.9,172.6c0,0.1-0.1,0.1-0.1,0.2c-0.1,0.1-0.1,0.1-0.2,0.1c-0.1,0-0.2,0.1-0.3,0.1c-0.1,0-0.2,0-0.4,0c-0.2,0-0.3,0-0.4,0
			c-0.1,0-0.2-0.1-0.2-0.1c-0.1,0-0.1-0.1-0.1-0.1c0-0.1,0-0.1,0-0.2v-20.7c0-0.1,0-0.1,0.1-0.2c0-0.1,0.1-0.1,0.2-0.1
			c0.1,0,0.2-0.1,0.3-0.1c0.1,0,0.3,0,0.5,0c0.2,0,0.4,0,0.5,0c0.1,0,0.2,0,0.3,0.1c0.1,0,0.1,0.1,0.2,0.1c0,0.1,0.1,0.1,0.1,0.2
			v15.7c0,0.3,0,0.6,0,0.9c0,0.3,0,0.6,0,0.9h0c0.2-0.2,0.3-0.5,0.6-0.9c0.2-0.4,0.4-0.7,0.7-1.1l10.3-15.5c0-0.1,0.1-0.1,0.1-0.2
			c0.1-0.1,0.1-0.1,0.2-0.1c0.1,0,0.2-0.1,0.3-0.1c0.1,0,0.2,0,0.4,0c0.2,0,0.3,0,0.4,0c0.1,0,0.2,0.1,0.3,0.1
			c0.1,0,0.1,0.1,0.1,0.1c0,0.1,0,0.1,0,0.2V172.6z"/>
		<path class="st1" d="M42.1,178.2c0,0.1,0,0.1,0,0.2c0,0-0.1,0.1-0.1,0.1c-0.1,0-0.1,0-0.3,0.1c-0.1,0-0.3,0-0.4,0
			c-0.2,0-0.3,0-0.4,0c-0.1,0-0.2,0-0.3-0.1c-0.1,0-0.1-0.1-0.1-0.1c0,0,0-0.1,0-0.2v-5.3H23.2v5.3c0,0.1,0,0.1,0,0.2
			c0,0-0.1,0.1-0.1,0.1c-0.1,0-0.2,0-0.3,0.1c-0.1,0-0.2,0-0.4,0c-0.2,0-0.3,0-0.4,0c-0.1,0-0.2,0-0.3-0.1c-0.1,0-0.1-0.1-0.1-0.1
			c0,0,0-0.1,0-0.2v-6.3c0-0.3,0-0.5,0.1-0.6c0.1-0.1,0.2-0.2,0.4-0.2h1.4c0.3-0.4,0.6-0.8,0.9-1.3c0.3-0.4,0.5-0.9,0.8-1.5
			c0.3-0.6,0.5-1.3,0.7-2.1c0.2-0.8,0.5-1.9,0.7-3.1c0.2-1.2,0.5-2.7,0.7-4.5c0.2-1.7,0.5-3.8,0.8-6.2c0.1-0.4,0.2-0.6,0.3-0.8
			c0.2-0.2,0.3-0.3,0.6-0.3h9.3c0.3,0,0.5,0.1,0.6,0.3c0.2,0.2,0.2,0.4,0.2,0.8v18.6h2.3c0.2,0,0.3,0.1,0.4,0.2
			c0.1,0.1,0.1,0.3,0.1,0.6V178.2z M37.2,153.3h-7.1c-0.3,2.3-0.5,4.2-0.7,5.9c-0.2,1.7-0.5,3.1-0.7,4.3c-0.2,1.2-0.5,2.2-0.7,3.1
			c-0.2,0.8-0.5,1.5-0.7,2.1c-0.2,0.6-0.5,1-0.7,1.4c-0.2,0.4-0.5,0.7-0.8,1.1h11.5V153.3z"/>
		<path class="st1" d="M57.5,172c0,0.1,0,0.3,0,0.4c0,0.1-0.1,0.2-0.1,0.3c0,0.1-0.1,0.1-0.2,0.2c-0.1,0-0.1,0.1-0.2,0.1H46.9
			c-0.2,0-0.4-0.1-0.6-0.2c-0.2-0.1-0.3-0.4-0.3-0.8v-19.4c0-0.4,0.1-0.7,0.3-0.8c0.2-0.2,0.4-0.2,0.6-0.2h9.9c0.1,0,0.2,0,0.2,0.1
			s0.1,0.1,0.2,0.2c0,0.1,0.1,0.2,0.1,0.3c0,0.1,0,0.3,0,0.4c0,0.1,0,0.3,0,0.4c0,0.1-0.1,0.2-0.1,0.3c0,0.1-0.1,0.1-0.2,0.2
			c-0.1,0-0.1,0.1-0.2,0.1H48v7.5h7.6c0.1,0,0.2,0,0.2,0.1c0.1,0,0.1,0.1,0.2,0.2c0,0.1,0.1,0.2,0.1,0.3c0,0.1,0,0.3,0,0.4
			c0,0.1,0,0.3,0,0.4c0,0.1-0.1,0.2-0.1,0.3c0,0.1-0.1,0.1-0.2,0.1c-0.1,0-0.1,0.1-0.2,0.1H48v8.6h9c0.1,0,0.1,0,0.2,0.1
			c0.1,0,0.1,0.1,0.2,0.2c0.1,0.1,0.1,0.2,0.1,0.3C57.5,171.7,57.5,171.8,57.5,172z"/>
		<path class="st1" d="M75,157.6c0,1-0.2,1.9-0.5,2.7c-0.3,0.8-0.8,1.5-1.5,2.1c-0.6,0.6-1.4,1.1-2.3,1.4c-0.9,0.3-2,0.5-3.3,0.5
			h-2.8v8.2c0,0.1,0,0.1-0.1,0.2c0,0.1-0.1,0.1-0.2,0.1c-0.1,0-0.2,0.1-0.3,0.1c-0.1,0-0.3,0-0.5,0c-0.2,0-0.3,0-0.5,0
			c-0.1,0-0.2-0.1-0.3-0.1c-0.1,0-0.1-0.1-0.2-0.1c0-0.1-0.1-0.1-0.1-0.2v-20.1c0-0.4,0.1-0.7,0.3-0.8c0.2-0.2,0.4-0.2,0.6-0.2h4.4
			c0.4,0,0.9,0,1.3,0.1c0.4,0,0.9,0.1,1.4,0.2c0.5,0.1,1.1,0.4,1.7,0.7c0.6,0.3,1.1,0.8,1.5,1.3c0.4,0.5,0.7,1.1,0.9,1.7
			C74.9,156.1,75,156.8,75,157.6z M72.8,157.8c0-0.9-0.2-1.7-0.5-2.4c-0.4-0.6-0.8-1.1-1.3-1.4c-0.5-0.3-1.1-0.5-1.6-0.6
			c-0.6-0.1-1.1-0.1-1.6-0.1h-3.1v9.3h2.9c0.9,0,1.7-0.1,2.4-0.4c0.6-0.2,1.2-0.6,1.6-1c0.4-0.4,0.8-0.9,1-1.5
			C72.7,159.1,72.8,158.5,72.8,157.8z"/>
		<path class="st1" d="M99.9,157.6c0,1-0.2,1.9-0.5,2.7c-0.3,0.8-0.8,1.5-1.5,2.1c-0.6,0.6-1.4,1.1-2.3,1.4c-0.9,0.3-2,0.5-3.3,0.5
			h-2.8v8.2c0,0.1,0,0.1-0.1,0.2c0,0.1-0.1,0.1-0.2,0.1c-0.1,0-0.2,0.1-0.3,0.1c-0.1,0-0.3,0-0.5,0c-0.2,0-0.3,0-0.5,0
			c-0.1,0-0.2-0.1-0.3-0.1c-0.1,0-0.1-0.1-0.2-0.1c0-0.1-0.1-0.1-0.1-0.2v-20.1c0-0.4,0.1-0.7,0.3-0.8c0.2-0.2,0.4-0.2,0.6-0.2h4.4
			c0.4,0,0.9,0,1.3,0.1c0.4,0,0.9,0.1,1.4,0.2c0.5,0.1,1.1,0.4,1.7,0.7c0.6,0.3,1.1,0.8,1.5,1.3c0.4,0.5,0.7,1.1,0.9,1.7
			C99.8,156.1,99.9,156.8,99.9,157.6z M97.8,157.8c0-0.9-0.2-1.7-0.5-2.4c-0.4-0.6-0.8-1.1-1.3-1.4c-0.5-0.3-1.1-0.5-1.6-0.6
			c-0.6-0.1-1.1-0.1-1.6-0.1h-3.1v9.3h2.9c0.9,0,1.7-0.1,2.4-0.4c0.6-0.2,1.2-0.6,1.6-1c0.4-0.4,0.8-0.9,1-1.5
			C97.6,159.1,97.8,158.5,97.8,157.8z"/>
		<path class="st1" d="M118,166.4c0,0.8-0.1,1.6-0.4,2.3c-0.3,0.7-0.7,1.4-1.3,2c-0.6,0.6-1.3,1.1-2.3,1.5c-1,0.4-2.3,0.6-4.1,0.6
			h-4.2c-0.1,0-0.2,0-0.3-0.1c-0.1,0-0.2-0.1-0.3-0.2c-0.1-0.1-0.2-0.2-0.2-0.3c-0.1-0.1-0.1-0.3-0.1-0.5v-20.1c0-0.1,0-0.1,0.1-0.2
			c0-0.1,0.1-0.1,0.2-0.1c0.1,0,0.2-0.1,0.3-0.1c0.1,0,0.3,0,0.5,0c0.2,0,0.4,0,0.5,0c0.1,0,0.2,0,0.3,0.1c0.1,0,0.1,0.1,0.2,0.1
			c0,0.1,0.1,0.1,0.1,0.2v8.5h3.1c1.5,0,2.7,0.1,3.6,0.4c0.9,0.3,1.7,0.6,2.3,1.1c0.6,0.5,1.2,1.2,1.5,1.9
			C117.8,164.5,118,165.4,118,166.4z M115.9,166.6c0-0.7-0.1-1.4-0.3-2c-0.2-0.6-0.6-1-1-1.4c-0.4-0.4-1-0.7-1.7-0.9
			c-0.7-0.2-1.7-0.3-3-0.3h-3v9.1h3.3c1.4,0,2.5-0.1,3.2-0.4c0.7-0.3,1.2-0.7,1.6-1.1c0.4-0.4,0.6-0.9,0.8-1.5
			C115.8,167.6,115.9,167.1,115.9,166.6z M123.7,172.6c0,0.1,0,0.1,0,0.2c0,0.1-0.1,0.1-0.2,0.1c-0.1,0-0.2,0.1-0.3,0.1
			c-0.1,0-0.3,0-0.5,0c-0.2,0-0.3,0-0.5,0c-0.1,0-0.2-0.1-0.3-0.1c-0.1,0-0.1-0.1-0.2-0.1c0-0.1-0.1-0.1-0.1-0.2v-20.8
			c0-0.1,0-0.1,0.1-0.2c0-0.1,0.1-0.1,0.2-0.1c0.1,0,0.2-0.1,0.3-0.1c0.1,0,0.3,0,0.4,0c0.2,0,0.3,0,0.5,0c0.1,0,0.2,0,0.3,0.1
			c0.1,0,0.1,0.1,0.2,0.1c0,0.1,0,0.1,0,0.2V172.6z"/>
		<path class="st1" d="M144.8,172.6c0,0.1,0,0.1-0.1,0.2c0,0.1-0.1,0.1-0.2,0.1c-0.1,0-0.2,0.1-0.3,0.1c-0.1,0-0.3,0-0.5,0
			c-0.2,0-0.4,0-0.5,0c-0.1,0-0.2-0.1-0.3-0.1c-0.1,0-0.1-0.1-0.2-0.1c0-0.1-0.1-0.1-0.1-0.2v-10H132v10c0,0.1,0,0.1-0.1,0.2
			c0,0.1-0.1,0.1-0.2,0.1c-0.1,0-0.2,0.1-0.3,0.1c-0.1,0-0.3,0-0.5,0c-0.2,0-0.3,0-0.5,0c-0.1,0-0.2-0.1-0.3-0.1
			c-0.1,0-0.1-0.1-0.2-0.1c0-0.1-0.1-0.1-0.1-0.2v-20.8c0-0.1,0-0.1,0.1-0.2c0-0.1,0.1-0.1,0.2-0.1c0.1,0,0.2-0.1,0.3-0.1
			c0.1,0,0.3,0,0.5,0c0.2,0,0.4,0,0.5,0c0.1,0,0.2,0,0.3,0.1c0.1,0,0.1,0.1,0.2,0.1c0,0.1,0.1,0.1,0.1,0.2v9h10.7v-9
			c0-0.1,0-0.1,0.1-0.2c0-0.1,0.1-0.1,0.2-0.1c0.1,0,0.2-0.1,0.3-0.1c0.1,0,0.3,0,0.5,0c0.2,0,0.3,0,0.5,0c0.1,0,0.2,0,0.3,0.1
			c0.1,0,0.1,0.1,0.2,0.1c0,0.1,0.1,0.1,0.1,0.2V172.6z"/>
		<path class="st1" d="M164.4,172.5c0,0.1,0,0.1,0,0.2c0,0.1-0.1,0.1-0.2,0.1c-0.1,0-0.2,0.1-0.3,0.1c-0.1,0-0.3,0-0.5,0
			c-0.2,0-0.4,0-0.6,0c-0.1,0-0.2-0.1-0.3-0.1c-0.1,0-0.1-0.1-0.2-0.2c0-0.1-0.1-0.2-0.1-0.3l-2.1-5.5c-0.3-0.7-0.6-1.3-0.9-1.8
			c-0.4-0.5-0.8-1-1.2-1.3c-0.5-0.3-1-0.6-1.6-0.8c-0.6-0.2-1.3-0.3-2-0.3H153v9.8c0,0.1,0,0.1-0.1,0.2c0,0.1-0.1,0.1-0.2,0.1
			c-0.1,0-0.2,0.1-0.3,0.1c-0.1,0-0.3,0-0.5,0c-0.2,0-0.3,0-0.5,0c-0.1,0-0.2-0.1-0.3-0.1c-0.1,0-0.1-0.1-0.2-0.1
			c0-0.1-0.1-0.1-0.1-0.2v-20.8c0-0.1,0-0.1,0.1-0.2c0-0.1,0.1-0.1,0.2-0.1c0.1,0,0.2-0.1,0.3-0.1c0.1,0,0.3,0,0.5,0
			c0.2,0,0.4,0,0.5,0c0.1,0,0.2,0,0.3,0.1c0.1,0,0.1,0.1,0.2,0.1c0,0.1,0.1,0.1,0.1,0.2v9.2h1.3c0.7,0,1.4-0.1,2-0.3
			c0.6-0.2,1.1-0.4,1.5-0.8c0.4-0.3,0.8-0.8,1.1-1.3c0.3-0.5,0.6-1.1,0.8-1.8l1.7-4.9c0-0.1,0.1-0.2,0.1-0.3c0-0.1,0.1-0.1,0.2-0.2
			c0.1-0.1,0.2-0.1,0.3-0.1c0.1,0,0.3,0,0.6,0c0.2,0,0.4,0,0.5,0c0.1,0,0.2,0.1,0.3,0.1c0.1,0,0.1,0.1,0.1,0.1c0,0.1,0,0.1,0,0.2
			c0,0.1,0,0.2,0,0.3c0,0.1-0.1,0.2-0.1,0.3l-1.8,4.8c-0.2,0.7-0.5,1.2-0.8,1.7c-0.3,0.5-0.5,0.9-0.9,1.2c-0.3,0.3-0.7,0.6-1,0.9
			c-0.4,0.2-0.8,0.4-1.3,0.5v0c0.6,0.2,1,0.4,1.5,0.6c0.4,0.3,0.8,0.6,1.2,0.9c0.4,0.4,0.7,0.8,1,1.3c0.3,0.5,0.6,1.1,0.8,1.8
			l2.2,5.5c0.1,0.2,0.1,0.3,0.1,0.4C164.4,172.4,164.4,172.5,164.4,172.5z"/>
		<path class="st1" d="M184.4,172.2c0.1,0.2,0.1,0.3,0.1,0.4c0,0.1,0,0.2-0.1,0.2c-0.1,0.1-0.2,0.1-0.3,0.1c-0.1,0-0.3,0-0.6,0
			c-0.2,0-0.4,0-0.6,0c-0.1,0-0.2,0-0.3-0.1c-0.1,0-0.1-0.1-0.2-0.1c0-0.1-0.1-0.1-0.1-0.2l-2.1-5.7h-9.4l-2,5.7
			c0,0.1-0.1,0.1-0.1,0.2c0,0.1-0.1,0.1-0.2,0.1c-0.1,0-0.2,0.1-0.3,0.1c-0.1,0-0.3,0-0.5,0c-0.2,0-0.4,0-0.6,0
			c-0.2,0-0.3-0.1-0.3-0.1c-0.1-0.1-0.1-0.1-0.1-0.2c0-0.1,0-0.2,0.1-0.4l7.5-20.4c0-0.1,0.1-0.2,0.1-0.2c0.1-0.1,0.2-0.1,0.3-0.1
			c0.1,0,0.2-0.1,0.4-0.1c0.2,0,0.3,0,0.5,0c0.2,0,0.4,0,0.5,0c0.2,0,0.3,0,0.4,0.1c0.1,0,0.2,0.1,0.2,0.1c0.1,0.1,0.1,0.1,0.1,0.2
			L184.4,172.2z M175.4,153.6L175.4,153.6l-4.1,11.5h8.2L175.4,153.6z"/>
		<path class="st1" d="M210.7,172.6c0,0.1,0,0.1-0.1,0.2c0,0.1-0.1,0.1-0.2,0.1c-0.1,0-0.2,0.1-0.3,0.1c-0.1,0-0.3,0-0.5,0
			c-0.2,0-0.4,0-0.5,0c-0.1,0-0.2-0.1-0.3-0.1c-0.1,0-0.1-0.1-0.2-0.1c0-0.1-0.1-0.1-0.1-0.2v-10H198v10c0,0.1,0,0.1-0.1,0.2
			c0,0.1-0.1,0.1-0.2,0.1c-0.1,0-0.2,0.1-0.3,0.1c-0.1,0-0.3,0-0.5,0c-0.2,0-0.3,0-0.5,0c-0.1,0-0.2-0.1-0.3-0.1
			c-0.1,0-0.1-0.1-0.2-0.1c0-0.1-0.1-0.1-0.1-0.2v-20.8c0-0.1,0-0.1,0.1-0.2c0-0.1,0.1-0.1,0.2-0.1c0.1,0,0.2-0.1,0.3-0.1
			c0.1,0,0.3,0,0.5,0c0.2,0,0.4,0,0.5,0c0.1,0,0.2,0,0.3,0.1c0.1,0,0.1,0.1,0.2,0.1c0,0.1,0.1,0.1,0.1,0.2v9h10.7v-9
			c0-0.1,0-0.1,0.1-0.2c0-0.1,0.1-0.1,0.2-0.1c0.1,0,0.2-0.1,0.3-0.1c0.1,0,0.3,0,0.5,0c0.2,0,0.3,0,0.5,0c0.1,0,0.2,0,0.3,0.1
			c0.1,0,0.1,0.1,0.2,0.1c0,0.1,0.1,0.1,0.1,0.2V172.6z"/>
		<path class="st1" d="M228.5,172c0,0.1,0,0.3,0,0.4c0,0.1-0.1,0.2-0.1,0.3c0,0.1-0.1,0.1-0.2,0.2c-0.1,0-0.1,0.1-0.2,0.1h-10.1
			c-0.2,0-0.4-0.1-0.6-0.2c-0.2-0.1-0.3-0.4-0.3-0.8v-19.4c0-0.4,0.1-0.7,0.3-0.8c0.2-0.2,0.4-0.2,0.6-0.2h9.9c0.1,0,0.2,0,0.2,0.1
			c0.1,0,0.1,0.1,0.2,0.2c0,0.1,0.1,0.2,0.1,0.3c0,0.1,0,0.3,0,0.4c0,0.1,0,0.3,0,0.4c0,0.1-0.1,0.2-0.1,0.3c0,0.1-0.1,0.1-0.2,0.2
			c-0.1,0-0.1,0.1-0.2,0.1H219v7.5h7.6c0.1,0,0.2,0,0.2,0.1c0.1,0,0.1,0.1,0.2,0.2c0,0.1,0.1,0.2,0.1,0.3c0,0.1,0,0.3,0,0.4
			c0,0.1,0,0.3,0,0.4c0,0.1-0.1,0.2-0.1,0.3c0,0.1-0.1,0.1-0.2,0.1c-0.1,0-0.1,0.1-0.2,0.1H219v8.6h9c0.1,0,0.1,0,0.2,0.1
			c0.1,0,0.1,0.1,0.2,0.2c0.1,0.1,0.1,0.2,0.1,0.3C228.5,171.7,228.5,171.8,228.5,172z"/>
		<path class="st1" d="M250.9,178.2c0,0.1,0,0.1,0,0.2c0,0-0.1,0.1-0.1,0.1c-0.1,0-0.1,0-0.3,0.1c-0.1,0-0.3,0-0.4,0
			c-0.2,0-0.3,0-0.4,0c-0.1,0-0.2,0-0.3-0.1c-0.1,0-0.1-0.1-0.1-0.1c0,0,0-0.1,0-0.2v-5.3H232v5.3c0,0.1,0,0.1,0,0.2
			c0,0-0.1,0.1-0.1,0.1c-0.1,0-0.2,0-0.3,0.1c-0.1,0-0.2,0-0.4,0c-0.2,0-0.3,0-0.4,0c-0.1,0-0.2,0-0.3-0.1c-0.1,0-0.1-0.1-0.1-0.1
			c0,0,0-0.1,0-0.2v-6.3c0-0.3,0-0.5,0.1-0.6c0.1-0.1,0.2-0.2,0.4-0.2h1.4c0.3-0.4,0.6-0.8,0.9-1.3c0.3-0.4,0.5-0.9,0.8-1.5
			c0.3-0.6,0.5-1.3,0.7-2.1c0.2-0.8,0.5-1.9,0.7-3.1c0.2-1.2,0.5-2.7,0.7-4.5c0.2-1.7,0.5-3.8,0.8-6.2c0.1-0.4,0.2-0.6,0.3-0.8
			c0.2-0.2,0.3-0.3,0.6-0.3h9.3c0.3,0,0.5,0.1,0.6,0.3c0.2,0.2,0.2,0.4,0.2,0.8v18.6h2.3c0.2,0,0.3,0.1,0.4,0.2
			c0.1,0.1,0.1,0.3,0.1,0.6V178.2z M246,153.3h-7.1c-0.3,2.3-0.5,4.2-0.7,5.9c-0.2,1.7-0.5,3.1-0.7,4.3c-0.2,1.2-0.5,2.2-0.7,3.1
			c-0.2,0.8-0.5,1.5-0.7,2.1c-0.2,0.6-0.5,1-0.7,1.4c-0.2,0.4-0.5,0.7-0.8,1.1H246V153.3z"/>
		<path class="st1" d="M268.2,166.9c0,0.6-0.1,1.2-0.2,1.8c-0.1,0.5-0.4,1-0.6,1.5c-0.3,0.4-0.6,0.8-1,1.2c-0.4,0.3-0.9,0.6-1.4,0.9
			c-0.5,0.2-1,0.4-1.6,0.5c-0.6,0.1-1.3,0.2-2,0.2h-5.6c-0.2,0-0.4-0.1-0.6-0.2c-0.2-0.1-0.3-0.4-0.3-0.8v-19.4
			c0-0.4,0.1-0.7,0.3-0.8c0.2-0.2,0.4-0.2,0.6-0.2h4.6c1.2,0,2.3,0.1,3,0.4c0.8,0.3,1.4,0.6,1.9,1.1c0.5,0.5,0.9,1,1.1,1.7
			c0.2,0.7,0.4,1.4,0.4,2.2c0,0.5-0.1,1-0.2,1.5c-0.1,0.5-0.3,0.9-0.5,1.3c-0.2,0.4-0.5,0.8-0.9,1.1c-0.3,0.3-0.8,0.6-1.2,0.8
			c0.6,0.1,1.1,0.3,1.6,0.6c0.5,0.3,1,0.7,1.3,1.2c0.4,0.5,0.7,1,0.9,1.6C268.1,165.5,268.2,166.2,268.2,166.9z M264.6,157
			c0-0.6-0.1-1.1-0.2-1.5c-0.2-0.5-0.4-0.9-0.7-1.2c-0.3-0.3-0.8-0.6-1.3-0.8c-0.5-0.2-1.3-0.3-2.2-0.3h-3.3v7.7h3.7
			c0.8,0,1.5-0.1,2-0.3c0.5-0.2,0.9-0.5,1.2-0.9c0.3-0.4,0.6-0.8,0.7-1.3C264.5,158,264.6,157.5,264.6,157z M266,167.1
			c0-0.7-0.1-1.3-0.3-1.9c-0.2-0.5-0.6-1-1-1.4c-0.4-0.4-1-0.6-1.6-0.8c-0.6-0.2-1.4-0.3-2.4-0.3h-3.9v8.4h4.7
			c0.7,0,1.3-0.1,1.8-0.3c0.5-0.2,1-0.4,1.4-0.8c0.4-0.3,0.7-0.8,1-1.3C265.9,168.3,266,167.7,266,167.1z"/>
		<path class="st1" d="M288.3,172.6c0,0.1,0,0.1,0,0.2c0,0.1-0.1,0.1-0.2,0.1c-0.1,0-0.2,0.1-0.3,0.1c-0.1,0-0.3,0-0.5,0
			s-0.3,0-0.5,0c-0.1,0-0.2-0.1-0.3-0.1c-0.1,0-0.1-0.1-0.2-0.1c0-0.1-0.1-0.1-0.1-0.2V157c0-0.3,0-0.6,0-1c0-0.3,0-0.7,0.1-0.9h0
			c-0.1,0.1-0.2,0.3-0.3,0.5c-0.1,0.2-0.2,0.3-0.3,0.5c-0.1,0.2-0.2,0.3-0.3,0.5c-0.1,0.2-0.2,0.3-0.3,0.5l-10.3,15.5
			c0,0.1-0.1,0.1-0.1,0.2c-0.1,0.1-0.1,0.1-0.2,0.1c-0.1,0-0.2,0.1-0.3,0.1c-0.1,0-0.2,0-0.4,0c-0.2,0-0.3,0-0.4,0
			c-0.1,0-0.2-0.1-0.2-0.1c-0.1,0-0.1-0.1-0.1-0.1c0-0.1,0-0.1,0-0.2v-20.7c0-0.1,0-0.1,0.1-0.2c0-0.1,0.1-0.1,0.2-0.1
			c0.1,0,0.2-0.1,0.3-0.1c0.1,0,0.3,0,0.5,0c0.2,0,0.4,0,0.5,0c0.1,0,0.2,0,0.3,0.1c0.1,0,0.1,0.1,0.2,0.1c0,0.1,0.1,0.1,0.1,0.2
			v15.7c0,0.3,0,0.6,0,0.9c0,0.3,0,0.6,0,0.9h0c0.2-0.2,0.3-0.5,0.6-0.9c0.2-0.4,0.4-0.7,0.7-1.1l10.3-15.5c0-0.1,0.1-0.1,0.1-0.2
			c0.1-0.1,0.1-0.1,0.2-0.1c0.1,0,0.2-0.1,0.3-0.1c0.1,0,0.2,0,0.4,0c0.2,0,0.3,0,0.4,0c0.1,0,0.2,0.1,0.3,0.1
			c0.1,0,0.1,0.1,0.1,0.1c0,0.1,0,0.1,0,0.2V172.6z"/>
		<path class="st1" d="M316.4,172.5c0,0.1,0,0.1-0.1,0.2c0,0.1-0.1,0.1-0.2,0.1c-0.1,0-0.2,0.1-0.3,0.1c-0.1,0-0.3,0-0.5,0
			c-0.2,0-0.4,0-0.6,0c-0.1,0-0.2-0.1-0.3-0.1c-0.1,0-0.1-0.1-0.2-0.2c0-0.1-0.1-0.2-0.1-0.3l-1.9-5.7c-0.2-0.7-0.5-1.3-0.8-1.7
			c-0.3-0.5-0.7-0.9-1.2-1.2c-0.4-0.3-1-0.6-1.6-0.7c-0.6-0.2-1.3-0.2-2-0.2h-1v9.8c0,0.1,0,0.1,0,0.2c0,0.1-0.1,0.1-0.2,0.1
			c-0.1,0-0.2,0.1-0.3,0.1c-0.1,0-0.3,0-0.5,0s-0.3,0-0.5,0c-0.1,0-0.2-0.1-0.3-0.1c-0.1,0-0.1-0.1-0.2-0.1c0-0.1,0-0.1,0-0.2v-9.8
			h-1c-0.8,0-1.5,0.1-2.1,0.3c-0.6,0.2-1.1,0.5-1.6,0.8c-0.4,0.3-0.8,0.8-1.1,1.2c-0.3,0.5-0.5,1-0.7,1.6l-1.9,5.7
			c0,0.1-0.1,0.2-0.1,0.3c0,0.1-0.1,0.1-0.2,0.2c-0.1,0.1-0.2,0.1-0.3,0.1c-0.1,0-0.3,0-0.6,0c-0.2,0-0.4,0-0.5,0
			c-0.1,0-0.2-0.1-0.3-0.1c-0.1,0-0.1-0.1-0.2-0.1c0-0.1-0.1-0.1-0.1-0.2c0,0,0-0.1,0-0.1c0,0,0-0.1,0-0.2c0-0.1,0-0.1,0-0.2
			c0-0.1,0-0.1,0.1-0.2l1.8-5.2c0.2-0.7,0.5-1.3,0.8-1.9c0.3-0.5,0.6-1,0.9-1.4c0.3-0.4,0.7-0.7,1.2-0.9c0.4-0.3,1-0.5,1.5-0.6v0
			c-0.5-0.1-0.9-0.3-1.3-0.5c-0.4-0.2-0.7-0.5-1-0.9c-0.3-0.4-0.6-0.8-0.8-1.3c-0.3-0.5-0.5-1.1-0.7-1.9l-1.6-4.8
			c0-0.1-0.1-0.2-0.1-0.3c0-0.1,0-0.2,0-0.3c0-0.1,0-0.1,0-0.2c0-0.1,0.1-0.1,0.1-0.1c0.1,0,0.2-0.1,0.3-0.1c0.1,0,0.3,0,0.5,0
			c0.2,0,0.4,0,0.6,0c0.1,0,0.2,0.1,0.3,0.1c0.1,0,0.1,0.1,0.2,0.2c0,0.1,0.1,0.2,0.1,0.3l1.7,5.4c0.2,0.6,0.4,1.1,0.7,1.6
			c0.3,0.4,0.6,0.8,1,1.1c0.4,0.3,0.9,0.5,1.4,0.7c0.6,0.2,1.2,0.2,2,0.2h1v-9.2c0-0.1,0-0.1,0-0.2c0-0.1,0.1-0.1,0.2-0.1
			c0.1,0,0.2-0.1,0.3-0.1c0.1,0,0.3,0,0.5,0s0.3,0,0.5,0c0.1,0,0.2,0,0.3,0.1c0.1,0,0.1,0.1,0.2,0.1c0,0.1,0,0.1,0,0.2v9.2h1
			c0.8,0,1.4-0.1,2-0.3c0.6-0.2,1.1-0.4,1.5-0.8c0.4-0.3,0.8-0.7,1-1.2c0.3-0.4,0.5-0.9,0.7-1.5l1.7-5.3c0-0.1,0.1-0.2,0.1-0.3
			c0-0.1,0.1-0.1,0.2-0.2c0.1-0.1,0.2-0.1,0.3-0.1c0.1,0,0.3,0,0.6,0c0.2,0,0.4,0,0.5,0c0.1,0,0.2,0.1,0.3,0.1
			c0.1,0,0.1,0.1,0.1,0.1c0,0.1,0,0.1,0,0.2c0,0.1,0,0.2-0.1,0.3c0,0.1-0.1,0.2-0.1,0.3l-1.6,4.7c-0.2,0.7-0.4,1.2-0.7,1.7
			c-0.2,0.5-0.5,0.9-0.8,1.3c-0.3,0.4-0.6,0.7-1,0.9c-0.4,0.2-0.9,0.4-1.4,0.6v0c0.6,0.2,1.1,0.4,1.6,0.7c0.4,0.3,0.8,0.6,1.2,1
			c0.3,0.4,0.7,0.9,0.9,1.4c0.3,0.5,0.5,1.2,0.8,1.9l1.7,5.2c0,0.1,0,0.2,0.1,0.2c0,0.1,0,0.1,0.1,0.2c0,0.1,0,0.1,0,0.2
			C316.4,172.5,316.4,172.5,316.4,172.5z"/>
		<path class="st1" d="M336.5,172.6c0,0.1,0,0.1,0,0.2c0,0.1-0.1,0.1-0.2,0.1c-0.1,0-0.2,0.1-0.3,0.1c-0.1,0-0.3,0-0.5,0
			c-0.2,0-0.3,0-0.5,0c-0.1,0-0.2-0.1-0.3-0.1c-0.1,0-0.1-0.1-0.2-0.1c0-0.1-0.1-0.1-0.1-0.2V157c0-0.3,0-0.6,0-1
			c0-0.3,0-0.7,0.1-0.9h0c-0.1,0.1-0.2,0.3-0.3,0.5c-0.1,0.2-0.2,0.3-0.3,0.5c-0.1,0.2-0.2,0.3-0.3,0.5c-0.1,0.2-0.2,0.3-0.3,0.5
			L323,172.6c0,0.1-0.1,0.1-0.1,0.2c-0.1,0.1-0.1,0.1-0.2,0.1c-0.1,0-0.2,0.1-0.3,0.1c-0.1,0-0.2,0-0.4,0c-0.2,0-0.3,0-0.4,0
			c-0.1,0-0.2-0.1-0.2-0.1c-0.1,0-0.1-0.1-0.1-0.1c0-0.1,0-0.1,0-0.2v-20.7c0-0.1,0-0.1,0.1-0.2c0-0.1,0.1-0.1,0.2-0.1
			c0.1,0,0.2-0.1,0.3-0.1c0.1,0,0.3,0,0.5,0c0.2,0,0.4,0,0.5,0c0.1,0,0.2,0,0.3,0.1c0.1,0,0.1,0.1,0.2,0.1c0,0.1,0.1,0.1,0.1,0.2
			v15.7c0,0.3,0,0.6,0,0.9c0,0.3,0,0.6,0,0.9h0c0.2-0.2,0.3-0.5,0.6-0.9c0.2-0.4,0.4-0.7,0.7-1.1l10.3-15.5c0-0.1,0.1-0.1,0.1-0.2
			c0.1-0.1,0.1-0.1,0.2-0.1c0.1,0,0.2-0.1,0.3-0.1c0.1,0,0.2,0,0.4,0c0.2,0,0.3,0,0.4,0c0.1,0,0.2,0.1,0.3,0.1
			c0.1,0,0.1,0.1,0.1,0.1c0,0.1,0,0.1,0,0.2V172.6z"/>
		<path class="st1" d="M365.2,172.6c0,0.1,0,0.1,0,0.2c0,0.1-0.1,0.1-0.2,0.1c-0.1,0-0.2,0.1-0.3,0.1c-0.1,0-0.3,0-0.5,0
			c-0.2,0-0.3,0-0.5,0c-0.1,0-0.2-0.1-0.3-0.1c-0.1,0-0.1-0.1-0.2-0.1c0-0.1,0-0.1,0-0.2v-19.4h0l-8.4,19.5c0,0-0.1,0.1-0.1,0.1
			c0,0-0.1,0.1-0.2,0.1c-0.1,0-0.2,0.1-0.3,0.1c-0.1,0-0.2,0-0.4,0c-0.2,0-0.3,0-0.4,0c-0.1,0-0.2,0-0.3-0.1c-0.1,0-0.1-0.1-0.2-0.1
			c0,0-0.1-0.1-0.1-0.1l-8-19.5h0v19.4c0,0.1,0,0.1-0.1,0.2c0,0.1-0.1,0.1-0.2,0.1c-0.1,0-0.2,0.1-0.3,0.1c-0.1,0-0.3,0-0.5,0
			c-0.2,0-0.3,0-0.5,0c-0.1,0-0.2-0.1-0.3-0.1c-0.1,0-0.1-0.1-0.2-0.1c0-0.1,0-0.1,0-0.2v-20.1c0-0.4,0.1-0.7,0.3-0.8
			c0.2-0.2,0.4-0.2,0.6-0.2h1.1c0.3,0,0.5,0,0.7,0.1c0.2,0.1,0.4,0.1,0.6,0.3c0.2,0.1,0.3,0.3,0.4,0.4c0.1,0.2,0.2,0.4,0.3,0.6
			l7.1,17.1h0.1l7.4-17c0.1-0.3,0.2-0.5,0.4-0.7c0.1-0.2,0.3-0.3,0.4-0.4c0.1-0.1,0.3-0.2,0.4-0.2c0.2,0,0.3-0.1,0.5-0.1h1.2
			c0.1,0,0.2,0,0.3,0c0.1,0,0.2,0.1,0.3,0.2c0.1,0.1,0.2,0.2,0.2,0.3c0.1,0.1,0.1,0.3,0.1,0.5V172.6z"/>
		<path class="st1" d="M388.8,161.9c0,1.7-0.2,3.3-0.6,4.7c-0.4,1.4-1,2.6-1.8,3.5c-0.8,1-1.8,1.7-3,2.3c-1.2,0.5-2.6,0.8-4.2,0.8
			c-1.6,0-3-0.3-4.1-0.8c-1.1-0.5-2.1-1.2-2.8-2.2c-0.7-0.9-1.3-2.1-1.6-3.4c-0.3-1.4-0.5-2.9-0.5-4.6c0-1.7,0.2-3.2,0.6-4.6
			c0.4-1.4,1-2.5,1.8-3.5c0.8-1,1.8-1.7,3-2.2c1.2-0.5,2.6-0.8,4.2-0.8c1.6,0,2.9,0.3,4,0.7c1.1,0.5,2.1,1.2,2.8,2.1
			c0.7,0.9,1.3,2.1,1.7,3.4C388.6,158.7,388.8,160.2,388.8,161.9z M386.6,162.1c0-1.3-0.1-2.5-0.4-3.6c-0.2-1.1-0.6-2.1-1.2-2.9
			c-0.5-0.8-1.3-1.5-2.2-1.9c-0.9-0.5-2-0.7-3.4-0.7c-1.3,0-2.4,0.2-3.4,0.7c-0.9,0.5-1.7,1.2-2.2,2c-0.6,0.8-1,1.8-1.2,2.9
			c-0.2,1.1-0.4,2.3-0.4,3.5c0,1.3,0.1,2.5,0.3,3.6c0.2,1.1,0.6,2.1,1.2,2.9c0.5,0.8,1.3,1.5,2.2,2c0.9,0.5,2,0.7,3.4,0.7
			c1.4,0,2.5-0.3,3.4-0.8c0.9-0.5,1.7-1.2,2.2-2c0.6-0.8,1-1.8,1.2-2.9C386.5,164.5,386.6,163.3,386.6,162.1z"/>
		<path class="st1" d="M407.8,170c0,0.1,0,0.2,0,0.3c0,0.1,0,0.2-0.1,0.3c0,0.1-0.1,0.1-0.1,0.2c0,0.1-0.1,0.2-0.2,0.3
			c-0.1,0.1-0.3,0.3-0.7,0.5c-0.4,0.2-0.8,0.5-1.3,0.7c-0.5,0.2-1.2,0.4-1.8,0.6c-0.7,0.2-1.5,0.2-2.3,0.2c-1.3,0-2.6-0.2-3.7-0.7
			c-1.1-0.5-2-1.2-2.8-2.1c-0.8-0.9-1.4-2-1.8-3.4c-0.4-1.3-0.6-2.8-0.6-4.5c0-1.7,0.2-3.3,0.7-4.7c0.4-1.4,1.1-2.6,1.9-3.5
			c0.8-1,1.8-1.7,2.9-2.2c1.1-0.5,2.4-0.8,3.7-0.8c0.6,0,1.3,0.1,1.9,0.2c0.6,0.1,1.2,0.3,1.7,0.5c0.5,0.2,1,0.4,1.4,0.6
			c0.4,0.2,0.7,0.4,0.8,0.6c0.1,0.2,0.2,0.3,0.3,0.3c0,0.1,0.1,0.1,0.1,0.2c0,0.1,0,0.2,0,0.3c0,0.1,0,0.2,0,0.4c0,0.2,0,0.3,0,0.4
			c0,0.1,0,0.2-0.1,0.3c0,0.1-0.1,0.1-0.1,0.2c-0.1,0-0.1,0.1-0.2,0.1c-0.2,0-0.4-0.1-0.7-0.3c-0.3-0.2-0.7-0.5-1.1-0.8
			c-0.5-0.3-1-0.5-1.7-0.8c-0.7-0.2-1.5-0.3-2.4-0.3c-1,0-1.9,0.2-2.8,0.6c-0.8,0.4-1.6,1-2.2,1.8c-0.6,0.8-1.1,1.8-1.4,2.9
			c-0.3,1.1-0.5,2.5-0.5,4c0,1.4,0.2,2.7,0.5,3.8c0.3,1.1,0.8,2,1.3,2.8c0.6,0.8,1.3,1.3,2.2,1.7c0.9,0.4,1.8,0.6,2.9,0.6
			c0.9,0,1.7-0.1,2.3-0.3c0.7-0.2,1.2-0.5,1.7-0.8c0.5-0.3,0.9-0.5,1.2-0.8c0.3-0.2,0.5-0.3,0.7-0.3c0.1,0,0.1,0,0.2,0
			c0,0,0.1,0.1,0.1,0.2c0,0.1,0.1,0.2,0.1,0.3C407.8,169.6,407.8,169.8,407.8,170z"/>
		<path class="st1" d="M425.1,152.4c0,0.1,0,0.3,0,0.4c0,0.1-0.1,0.2-0.1,0.3c0,0.1-0.1,0.1-0.2,0.2c-0.1,0-0.1,0.1-0.2,0.1h-6.4
			v19.3c0,0.1,0,0.1-0.1,0.2c0,0.1-0.1,0.1-0.2,0.1c-0.1,0-0.2,0.1-0.3,0.1c-0.1,0-0.3,0-0.5,0s-0.3,0-0.5,0c-0.1,0-0.2-0.1-0.3-0.1
			c-0.1,0-0.1-0.1-0.2-0.1c0-0.1,0-0.1,0-0.2v-19.3h-6.4c-0.1,0-0.2,0-0.2-0.1c-0.1,0-0.1-0.1-0.2-0.2c0-0.1-0.1-0.2-0.1-0.3
			c0-0.1,0-0.2,0-0.4c0-0.2,0-0.3,0-0.4c0-0.1,0.1-0.2,0.1-0.3c0-0.1,0.1-0.1,0.2-0.2c0.1,0,0.1-0.1,0.2-0.1h14.8
			c0.1,0,0.2,0,0.2,0.1s0.1,0.1,0.2,0.2c0,0.1,0.1,0.2,0.1,0.3C425,152.1,425.1,152.2,425.1,152.4z"/>
		<path class="st1" d="M443.8,172.6c0,0.1,0,0.1,0,0.2c0,0.1-0.1,0.1-0.2,0.1c-0.1,0-0.2,0.1-0.3,0.1c-0.1,0-0.3,0-0.5,0
			c-0.2,0-0.3,0-0.5,0c-0.1,0-0.2-0.1-0.3-0.1c-0.1,0-0.1-0.1-0.2-0.1c0-0.1-0.1-0.1-0.1-0.2V157c0-0.3,0-0.6,0-1
			c0-0.3,0-0.7,0.1-0.9h0c-0.1,0.1-0.2,0.3-0.3,0.5c-0.1,0.2-0.2,0.3-0.3,0.5c-0.1,0.2-0.2,0.3-0.3,0.5s-0.2,0.3-0.3,0.5l-10.3,15.5
			c0,0.1-0.1,0.1-0.1,0.2c-0.1,0.1-0.1,0.1-0.2,0.1c-0.1,0-0.2,0.1-0.3,0.1c-0.1,0-0.2,0-0.4,0c-0.2,0-0.3,0-0.4,0
			c-0.1,0-0.2-0.1-0.2-0.1c-0.1,0-0.1-0.1-0.1-0.1c0-0.1,0-0.1,0-0.2v-20.7c0-0.1,0-0.1,0.1-0.2c0-0.1,0.1-0.1,0.2-0.1
			c0.1,0,0.2-0.1,0.3-0.1c0.1,0,0.3,0,0.5,0c0.2,0,0.4,0,0.5,0c0.1,0,0.2,0,0.3,0.1c0.1,0,0.1,0.1,0.2,0.1c0,0.1,0.1,0.1,0.1,0.2
			v15.7c0,0.3,0,0.6,0,0.9c0,0.3,0,0.6,0,0.9h0c0.2-0.2,0.3-0.5,0.6-0.9c0.2-0.4,0.4-0.7,0.7-1.1l10.3-15.5c0-0.1,0.1-0.1,0.1-0.2
			c0.1-0.1,0.1-0.1,0.2-0.1c0.1,0,0.2-0.1,0.3-0.1c0.1,0,0.2,0,0.4,0c0.2,0,0.3,0,0.4,0c0.1,0,0.2,0.1,0.3,0.1
			c0.1,0,0.1,0.1,0.1,0.1c0,0.1,0,0.1,0,0.2V172.6z"/>
	</g>
	<g>
		<path class="st2" d="M211.8,121.8c-106.2,0-192.2-26.1-192.2-58.3c0-32.2,86.1-58.3,192.2-58.3C317.9,5.2,404,31.3,404,63.5
			C404,95.7,317.9,121.8,211.8,121.8"/>
		<path class="st3" d="M340.7,36.3h0.9c0.6,0,1.1-0.1,1.3-0.3c0.3-0.2,0.4-0.5,0.4-0.8c0-0.3-0.1-0.6-0.4-0.8
			c-0.2-0.2-0.6-0.3-1.2-0.3h-1V36.3z M338.6,32.7h3.8c1.1,0,1.9,0.2,2.4,0.7c0.5,0.4,0.7,1,0.7,1.7c0,0.6-0.2,1.1-0.6,1.5
			c-0.4,0.4-1,0.7-1.8,0.9c0.3,0.1,0.6,0.3,0.7,0.4c0.2,0.2,0.4,0.5,0.7,0.9c0,0,0.5,0.9,1.4,2.5h-2.5c-0.8-1.6-1.4-2.6-1.7-2.9
			c-0.3-0.3-0.6-0.5-0.8-0.5c-0.1,0-0.2,0-0.3,0v3.4h-2.1V32.7z M348.7,37c0-1.8-0.6-3.3-1.9-4.6c-1.3-1.3-2.8-1.9-4.6-1.9
			c-1.8,0-3.3,0.6-4.6,1.9c-1.3,1.3-1.9,2.8-1.9,4.6c0,1.8,0.6,3.3,1.9,4.6c1.3,1.3,2.8,1.9,4.6,1.9c1.8,0,3.3-0.6,4.6-1.9
			C348.1,40.3,348.7,38.8,348.7,37 M350.3,37c0,1.4-0.4,2.8-1.1,4c-0.7,1.2-1.7,2.2-2.9,2.9c-1.2,0.7-2.6,1.1-4,1.1
			c-1.4,0-2.8-0.4-4-1.1c-1.2-0.7-2.2-1.7-2.9-2.9c-0.7-1.2-1.1-2.6-1.1-4c0-1.4,0.4-2.8,1.1-4c0.7-1.2,1.7-2.2,2.9-2.9
			c1.2-0.7,2.6-1.1,4-1.1c1.4,0,2.8,0.4,4,1.1c1.2,0.7,2.2,1.7,2.9,2.9C349.9,34.2,350.3,35.6,350.3,37"/>
		<path class="st3" d="M274.4,42.3h33.4v7.5h-12.4v34.7h-8.7V49.8h-12.4V42.3z M236.9,42.3h8.7V61H263V42.3h8.7v42.2H263V68h-17.4
			v16.5h-8.7V42.3z M177.4,84.5h9.8l-17-42.2h-9.9l-17.1,42.2h9.3c4.3-11.2,8.4-22.3,12.3-33.7h0.1C169,62.1,173.1,73.3,177.4,84.5
			 M115.5,42.3h33.4v7.5h-12.4v34.7h-8.7V49.8h-12.4V42.3z M203.7,71.5h14.9c1,2.6,2.3,6.1,4.9,13h9.8l-17-42.2h-9.9l-17.1,42.2h9.3
			C201.5,77.1,202.8,73.8,203.7,71.5 M216.1,64.5h-9.8c0.9-2.7,2.3-6.8,4.7-13.8h0.1C213.6,57.8,215.1,61.8,216.1,64.5 M103.9,64.5
			c-1.1-3-2.5-7-5-13.8h-0.1c-2.4,7.1-3.8,11.1-4.7,13.8H103.9z M316.5,71.5h15c1,2.7,2.3,6.2,4.9,13h9.8l-17-42.2h-9.9l-17.1,42.2
			h9.3C314.3,77,315.6,73.7,316.5,71.5 M328.9,64.5H319c0.9-2.7,2.3-6.7,4.7-13.8h0.1C326.4,57.7,327.8,61.7,328.9,64.5 M94.2,42.3
			h9.9l17,42.2h-9.8c-2.5-6.6-3.9-10.1-4.9-13H91.5c-0.8,2.1-2.1,5.4-5,13h-9.3L94.2,42.3z"/>
		<path class="st4" d="M211.8,119.8c-105,0-187.5-25.8-187.5-57.7c0-31.8,82.5-57.7,187.5-57.7c105,0,187.5,25.8,187.5,57.7
			C399.3,94,316.8,119.8,211.8,119.8 M211.8,0.2C98.9,0.2,7.4,28,7.4,62.2c0,34.2,91.5,62,204.4,62c112.9,0,204.3-27.7,204.3-62
			C416.1,28,324.6,0.2,211.8,0.2"/>
		<path class="st5" d="M211.7,125.3c-112.9,0-204.4-27.7-204.4-62c0-34.2,91.5-62,204.4-62c112.9,0,204.3,27.7,204.3,62
			C416,97.6,324.5,125.3,211.7,125.3 M211.7,0.2C96.6,0.2,0.1,28.5,0.1,63.4c0,34.9,96.5,63.2,211.6,63.2
			c115.1,0,211.6-28.3,211.6-63.2C423.2,28.5,326.7,0.2,211.7,0.2"/>
	</g>
</g>
</svg>
